# xmcd
#
# Track frame offsets:
#	150
#	2225
#	27725
#	46095
#	76029
#	96939
#	111525
#	137150
#	172875
#	206840
#	233900
#	239280
#
# Disc length: 3511 seconds
#
# Revision: 1
# Processed by: cddbd v1.5.2PL0 Copyright (c) Steve Scherf et al.
# Submitted via: audiograbber 1.83.01
#
DISCID=9d0db50c
DTITLE=Garcia and Grisman - 91-12-09 Warfield Theatre, San Francisco CA
DYEAR=1900
DGENRE=
TTITLE0=Tuning
TTITLE1=Walkin' Boss
TTITLE2=When First Unto This Country
TTITLE3=Troubled In Mind
TTITLE4=Sweet Sunny South
TTITLE5=Tell It To Me
TTITLE6=Off To Sea Once More
TTITLE7=Sitting Here In Limbo
TTITLE8=Russian Lullaby
TTITLE9=Wind and Rain
TTITLE10=Band Intros
TTITLE11=God Rest Ye Merry Gentlemen Instrumental
EXTD=
EXTT0=
EXTT1=
EXTT2=
EXTT3=
EXTT4=
EXTT5=
EXTT6=
EXTT7=
EXTT8=
EXTT9=
EXTT10=
EXTT11=
PLAYORDER=
